<?xml version="1.0" encoding="UTF-8" standalone="no"?>
<!-- Created with Inkscape (http://www.inkscape.org/) -->

<svg
   width="4096"
   height="4096"
   viewBox="0 0 1083.7333 1083.7333"
   version="1.1"
   id="svg5"
   inkscape:version="1.2.2 (b0a8486541, 2022-12-01)"
   sodipodi:docname="empty_canvas.svg"
   xmlns:inkscape="http://www.inkscape.org/namespaces/inkscape"
   xmlns:sodipodi="http://sodipodi.sourceforge.net/DTD/sodipodi-0.dtd"
   xmlns="http://www.w3.org/2000/svg"
   xmlns:svg="http://www.w3.org/2000/svg">
  <sodipodi:namedview
     id="namedview7"
     pagecolor="#ffffff"
     bordercolor="#000000"
     borderopacity="0.25"
     inkscape:showpageshadow="2"
     inkscape:pageopacity="0.0"
     inkscape:pagecheckerboard="true"
     inkscape:deskcolor="#d1d1d1"
     inkscape:document-units="mm"
     showgrid="false"
     inkscape:zoom="0.14807129"
     inkscape:cx="3292.3331"
     inkscape:cy="1408.1055"
     inkscape:window-width="1852"
     inkscape:window-height="1048"
     inkscape:window-x="68"
     inkscape:window-y="32"
     inkscape:window-maximized="1"
     inkscape:current-layer="layer1" />
  <defs
     id="defs2" />
  <g
     inkscape:label="Layer 1"
     inkscape:groupmode="layer"
     id="layer1">
    <rect
       style="fill:#ffffff;stroke:#e5ab17;stroke-width:0;stroke-linecap:round;stroke-linejoin:round;paint-order:fill markers stroke"
       id="rect376"
       width="1083.7333"
       height="1083.7333"
       x="2.8483073e-05"
       y="2.8483073e-05"
       ry="2.6417687" />
    <rect
       style="opacity:0.81;fill:#000000;fill-opacity:1;stroke:none;stroke-width:17.5827;stroke-linecap:butt;stroke-linejoin:miter;stroke-dasharray:none;stroke-opacity:1;paint-order:markers stroke fill"
       id="rect2373"
       width="721.15424"
       height="474.51877"
       x="188.76959"
       y="312.51041"
       ry="2.4773831" />
    <rect
       style="fill:#ececec;fill-opacity:1;stroke:#666666;stroke-width:16.93333333;stroke-linecap:butt;stroke-linejoin:miter;stroke-dasharray:none;stroke-opacity:1;paint-order:markers stroke fill"
       id="rect2042"
       width="710.82819"
       height="446.51285"
       x="186.45258"
       y="318.61023"
       ry="2.3311689" />
    <ellipse
       style="fill:#ffde00;fill-opacity:1;stroke:#666666;stroke-width:16.93333333;stroke-linecap:round;stroke-linejoin:round;stroke-dasharray:none;stroke-opacity:1;paint-order:markers stroke fill"
       id="path1304"
       cx="539.87103"
       cy="542.08154"
       rx="159.58061"
       ry="158.77406" />
    <path
       style="fill:#333333;fill-opacity:1;stroke:none;stroke-width:16.9333;stroke-linecap:butt;stroke-linejoin:miter;stroke-dasharray:none;stroke-opacity:1;paint-order:markers stroke fill"
       d="m 410.62531,516.04273 c 19.91074,161.72367 219.34663,191.26377 265.00492,0 -73.43742,67.38216 -211.40489,63.60602 -265.00492,0 z"
       id="path2215"
       sodipodi:nodetypes="ccc" />
    <g
       aria-label="WALLPAPERIZE!!"
       id="text434"
       style="font-weight:bold;font-size:61.4007px;font-family:'DejaVu Sans';-inkscape-font-specification:'DejaVu Sans Bold';text-align:end;text-anchor:end;fill:#ffffff;stroke:#666666;stroke-width:16.9333;stroke-linecap:square;stroke-linejoin:round;stroke-dasharray:none;stroke-opacity:1;paint-order:markers stroke fill"
       transform="translate(0,59.167821)">
      <path
         id="path1249"
         style="font-family:'Source Sans Variable';-inkscape-font-specification:'Source Sans Variable Bold';fill:#ffffff;stroke:#666666;stroke-width:16.9333;stroke-linecap:butt;stroke-linejoin:miter;stroke-dasharray:none;stroke-opacity:1;paint-order:markers stroke fill"
         d="m 756.73855,547.88394 h 5.95587 l 1.22801,-18.78861 0.307,-8.16629 h -9.0259 l 0.30701,8.16629 z m 3.00863,14.92037 c 3.13144,0 5.40327,-2.45602 5.40327,-5.64886 0,-3.19284 -2.27183,-5.71027 -5.40327,-5.71027 -3.13143,0 -5.46466,2.51743 -5.46466,5.71027 0,3.19284 2.33323,5.64886 5.46466,5.64886 z M 735.8623,547.88394 h 5.95587 l 1.22801,-18.78861 0.307,-8.16629 h -9.0259 l 0.307,8.16629 z m 3.00863,14.92037 c 3.13144,0 5.40326,-2.45602 5.40326,-5.64886 0,-3.19284 -2.27182,-5.71027 -5.40326,-5.71027 -3.13143,0 -5.46466,2.51743 -5.46466,5.71027 0,3.19284 2.33323,5.64886 5.46466,5.64886 z m -39.41928,-0.73681 h 25.7269 v -7.55228 h -16.63959 v -9.21011 h 13.63095 v -7.61368 h -13.63095 v -8.04349 h 16.02558 v -7.55229 h -25.11289 z m -35.73523,0 h 28.98113 v -7.55228 h -17.8062 l 17.6834,-26.95491 v -5.46466 h -27.20051 v 7.55229 h 16.02558 l -17.6834,27.0163 z m -15.9642,0 h 9.0873 v -39.97185 h -9.0873 z m -37.6387,0 h 9.0873 v -14.36776 h 5.34186 c 8.4733,0 15.47298,-3.99104 15.47298,-13.13975 0,-9.51711 -6.99968,-12.46434 -15.47298,-12.46434 h -14.42916 z m 9.0873,-21.55164 v -11.23633 h 4.60505 c 4.78926,0 7.30669,1.28942 7.30669,5.28046 0,3.92965 -2.51743,5.95587 -7.30669,5.95587 z m 12.58715,21.55164 h 10.13111 l -12.77134,-22.53405 -6.26288,5.77166 z m -55.32205,0 h 25.72689 v -7.55228 h -16.63959 v -9.21011 h 13.63096 v -7.61368 h -13.63096 v -8.04349 h 16.02559 v -7.55229 h -25.11289 z m -36.59486,0 h 9.0873 v -13.56955 h 4.91206 c 8.47329,0 15.65717,-4.11385 15.65717,-13.56955 0,-9.70131 -7.06108,-12.83275 -15.90278,-12.83275 h -13.75375 z m 9.0873,-20.75343 v -12.03454 h 4.17525 c 4.85065,0 7.55228,1.47362 7.55228,5.64887 0,4.17524 -2.33322,6.38567 -7.30668,6.38567 z m -49.36615,20.75343 h 9.27151 l 5.21906,-20.26223 c 1.10521,-3.99104 2.21042,-8.65749 3.19283,-12.89414 h 0.24561 c 1.04381,4.17524 2.08762,8.9031 3.25423,12.89414 l 5.21906,20.26223 h 9.57851 l -12.58714,-39.97185 h -10.80652 z m 8.2891,-9.5171 h 19.27982 v -6.99968 h -19.27982 z m -36.71771,9.5171 h 9.0873 v -13.56955 h 4.91206 c 8.47329,0 15.65718,-4.11385 15.65718,-13.56955 0,-9.70131 -7.06108,-12.83275 -15.90279,-12.83275 H 471.1636 Z m 9.0873,-20.75343 v -12.03454 h 4.17525 c 4.85065,0 7.55229,1.47362 7.55229,5.64887 0,4.17524 -2.33323,6.38567 -7.30669,6.38567 z m -40.89284,20.75343 h 24.86728 v -7.55228 h -15.77998 v -32.41957 h -9.0873 z m -31.80555,0 h 24.86729 v -7.55228 h -15.77998 v -32.41957 h -9.08731 z m -40.27885,0 h 9.2715 l 5.21906,-20.26223 c 1.10522,-3.99104 2.21043,-8.65749 3.19284,-12.89414 h 0.2456 c 1.04381,4.17524 2.08763,8.9031 3.25424,12.89414 l 5.21906,20.26223 h 9.57851 L 390.66732,522.09565 H 379.8608 Z m 8.28909,-9.5171 h 19.27982 v -6.99968 h -19.27982 z m -49.61175,9.5171 h 11.42054 l 3.62264,-18.1132 c 0.6754,-3.13144 1.10521,-6.26287 1.53501,-9.51711 h 0.24561 c 0.4298,3.25424 0.79821,6.38567 1.47361,9.51711 l 3.80685,18.1132 h 11.60473 l 7.18388,-39.97185 h -8.7189 l -2.76303,18.66581 c -0.55261,4.11385 -1.10521,8.3505 -1.53502,12.77135 h -0.2456 c -0.73681,-4.42085 -1.53502,-8.7189 -2.39463,-12.77135 l -4.17525,-18.66581 h -7.98209 l -4.35945,18.66581 c -0.7982,4.17525 -1.53501,8.4119 -2.27182,12.77135 h -0.2456 c -0.49121,-4.35945 -0.98242,-8.5347 -1.53502,-12.77135 l -2.70163,-18.66581 h -9.33291 z" />
    </g>
    <path
       style="fill:#ffffff;fill-opacity:1;stroke:#666666;stroke-width:16.9333;stroke-linecap:butt;stroke-linejoin:miter;stroke-dasharray:none;stroke-opacity:1;paint-order:markers stroke fill"
       d="m 781.93259,377.94764 h 77.28299 l -37.41777,64.80947 z"
       id="path2111" />
    <circle
       style="fill:#ffffff;fill-opacity:1;stroke:#333333;stroke-width:16.9333;stroke-linecap:butt;stroke-linejoin:miter;stroke-dasharray:none;stroke-opacity:1;paint-order:markers stroke fill"
       id="path1976"
       cx="471.1636"
       cy="522.57361"
       r="32.226501" />
    <circle
       style="fill:#ffffff;fill-opacity:1;stroke:#333333;stroke-width:16.9333;stroke-linecap:butt;stroke-linejoin:miter;stroke-dasharray:none;stroke-opacity:1;paint-order:markers stroke fill"
       id="circle1978"
       cx="610.11353"
       cy="522.57361"
       r="32.226501" />
    <rect
       style="fill:#666666;fill-opacity:1;stroke:none;stroke-width:4.54792;stroke-linecap:butt;stroke-linejoin:miter;stroke-dasharray:none;stroke-opacity:1;paint-order:markers stroke fill"
       id="rect2357"
       width="727.76154"
       height="31.459635"
       x="177.98592"
       y="310.14355"
       ry="0.16424547" />
  </g>
</svg>
